<?xml version="1.0" standalone="no"?>
<!DOCTYPE svg PUBLIC "-//W3C//DTD SVG 20010904//EN"
 "http://www.w3.org/TR/2001/REC-SVG-20010904/DTD/svg10.dtd">
<svg version="1.0" xmlns="http://www.w3.org/2000/svg"
 width="800.000000pt" height="800.000000pt" viewBox="0 0 800.000000 800.000000"
 preserveAspectRatio="xMidYMid meet">
<metadata>
Created by potrace 1.11, written by Peter Selinger 2001-2013
</metadata>
<g transform="translate(0.000000,800.000000) scale(0.100000,-0.100000)"
fill="#000000" stroke="none">
<path d="M1990 6581 l0 -209 233 -4 c254 -5 302 -14 369 -65 75 -58 122 -162
138 -304 17 -147 8 -4137 -9 -4204 -34 -131 -96 -215 -190 -259 -42 -19 -70
-21 -291 -26 l-245 -5 -3 -212 -2 -213 2345 0 c2227 0 2345 1 2345 18 0 9 14
408 30 887 16 478 26 873 24 877 -3 4 -103 8 -224 8 -218 0 -218 0 -223 -22
-3 -13 -36 -162 -72 -332 -37 -170 -78 -347 -91 -394 -89 -308 -250 -490 -473
-538 -53 -11 -216 -14 -853 -14 l-788 0 0 2208 c0 1421 4 2230 10 2272 14 92
73 205 128 247 75 57 121 66 375 71 l227 4 0 209 0 209 -1380 0 -1380 0 0
-209z"/>
</g>
</svg>
